o lowpoly.obj
v 0.180000 0.000000 -0.140000
v 0.180000 0.080000 -0.140000
v 0.180000 0.000000 0.140000
v 0.180000 0.080000 0.140000
v 0.000000 0.000000 -0.140000
v 0.000000 0.050000 -0.140000
v 0.000000 0.020000 0.110000
v 0.000000 0.000000 0.110000
v 0.160000 0.080000 0.140000
v 0.180000 0.000000 0.000000
v 0.180000 0.080000 0.000000
v 0.000000 0.000000 0.000000
v 0.000000 0.020000 0.000000
v 0.160000 0.080000 0.130000
v 0.000000 0.050000 -0.120000
v 0.160000 0.020000 0.140000
v 0.090000 0.000000 -0.140000
v 0.090000 0.020000 0.140000
v 0.090000 0.080000 -0.140000
v 0.090000 0.000000 0.140000
v 0.090000 0.020000 0.000000
v 0.090000 0.000000 0.000000
v 0.090000 0.080000 -0.120000
v 0.060000 0.020000 0.110000
v 0.060000 0.050000 -0.140000
v 0.060000 0.000000 0.110000
v 0.060000 0.050000 -0.120000
v 0.160000 0.020000 -0.120000
v 0.160000 0.020000 0.000000
v 0.090000 0.020000 -0.120000
v 0.000000 0.020000 -0.120000
v 0.090000 0.080000 -0.130000
v 0.170000 0.080000 0.000000
v 0.170000 0.080000 0.130000
v 0.170000 0.080000 -0.130000
v 0.090000 0.090000 -0.130000
v 0.090000 0.090000 -0.120000
v 0.160000 0.090000 -0.120000
v 0.160000 0.090000 0.000000
v 0.170000 0.090000 0.000000
v 0.160000 0.090000 0.130000
v 0.170000 0.090000 0.130000
v 0.170000 0.090000 -0.130000
v 0.070607 0.000000 0.114403
v 0.070607 0.020000 0.114403
v 0.079393 0.020000 0.135609
v 0.079393 0.000000 0.135609
v 0.070607 0.054403 -0.140000
v 0.070607 0.054403 -0.120000
v 0.079393 0.075609 -0.120000
v 0.079393 0.075609 -0.140000
v -0.180000 0.000000 -0.140000
v -0.180000 0.080000 -0.140000
v -0.180000 0.000000 0.140000
v -0.180000 0.080000 0.140000
v -0.160000 0.080000 0.140000
v -0.180000 0.000000 0.000000
v -0.180000 0.080000 0.000000
v -0.160000 0.080000 0.130000
v -0.160000 0.020000 0.140000
v -0.090000 0.000000 -0.140000
v -0.090000 0.020000 0.140000
v -0.090000 0.080000 -0.140000
v -0.090000 0.000000 0.140000
v -0.090000 0.020000 0.000000
v -0.090000 0.000000 0.000000
v -0.090000 0.080000 -0.120000
v -0.060000 0.020000 0.110000
v -0.060000 0.050000 -0.140000
v -0.060000 0.000000 0.110000
v -0.060000 0.050000 -0.120000
v -0.160000 0.020000 -0.120000
v -0.160000 0.020000 0.000000
v -0.090000 0.020000 -0.120000
v -0.090000 0.080000 -0.130000
v -0.170000 0.080000 0.000000
v -0.170000 0.080000 0.130000
v -0.170000 0.080000 -0.130000
v -0.090000 0.090000 -0.130000
v -0.090000 0.090000 -0.120000
v -0.160000 0.090000 -0.120000
v -0.160000 0.090000 0.000000
v -0.170000 0.090000 0.000000
v -0.160000 0.090000 0.130000
v -0.170000 0.090000 0.130000
v -0.170000 0.090000 -0.130000
v -0.070607 0.000000 0.114403
v -0.070607 0.020000 0.114403
v -0.079393 0.020000 0.135609
v -0.079393 0.000000 0.135609
v -0.070607 0.054403 -0.140000
v -0.070607 0.054403 -0.120000
v -0.079393 0.075609 -0.120000
v -0.079393 0.075609 -0.140000
vn 0.577350 -0.577350 -0.577350
vn 0.408248 0.816497 -0.408248
vn 0.333333 -0.666667 0.666667
vn 0.577350 0.577350 0.577350
vn 0.000000 -0.707107 -0.707107
vn 0.000000 0.707107 -0.707107
vn 0.000000 0.447214 0.894427
vn 0.000000 -0.707107 0.707107
vn -0.408248 0.816497 0.408248
vn 0.832050 -0.554700 0.000000
vn 0.600000 0.800000 0.000000
vn 0.000000 -1.000000 0.000000
vn 0.000000 1.000000 0.000000
vn -0.872872 0.218218 0.436436
vn 0.000000 0.894427 0.447214
vn -0.408248 0.408248 0.816497
vn 0.000000 -0.371391 -0.928477
vn -0.214695 0.561306 0.799276
vn -0.090926 0.695081 -0.713158
vn -0.107348 -0.561306 0.820617
vn 0.000000 1.000000 0.000000
vn 0.000000 -1.000000 0.000000
vn -0.319145 0.213294 0.923391
vn -0.106962 0.836984 0.536671
vn -0.091142 0.695023 -0.713188
vn -0.155264 -0.607473 0.779019
vn -0.182283 0.676857 0.713188
vn -0.666667 0.333333 0.666667
vn -0.707107 0.707107 0.000000
vn 0.000000 0.624695 0.780869
vn 0.000000 0.447214 0.894427
vn -0.627820 0.752366 -0.199467
vn 0.832050 0.554700 0.000000
vn 0.436436 0.872872 0.218218
vn 0.218218 0.872872 -0.436436
vn -0.333333 0.666667 -0.666667
vn -0.816497 0.408248 0.408248
vn -0.218218 0.872872 0.436436
vn -0.800000 0.600000 0.000000
vn 0.707107 0.707107 0.000000
vn -0.577350 0.577350 0.577350
vn 0.333333 0.666667 0.666667
vn 0.666667 0.666667 -0.333333
vn -0.480048 -0.734450 0.479726
vn -0.622109 0.475899 0.621692
vn -0.479764 0.734518 0.479906
vn -0.621781 -0.475972 0.621964
vn -0.491516 0.648315 -0.581464
vn -0.648645 0.491080 0.581464
vn -0.491054 0.648605 0.581531
vn -0.621781 0.621964 -0.475972
vn -0.577350 -0.577350 -0.577350
vn -0.408248 0.816497 -0.408248
vn -0.333333 -0.666667 0.666667
vn -0.577350 0.577350 0.577350
vn 0.408248 0.816497 0.408248
vn -0.832050 -0.554700 0.000000
vn -0.600000 0.800000 0.000000
vn 0.872872 0.218218 0.436436
vn 0.408248 0.408248 0.816497
vn 0.000000 -0.371391 -0.928477
vn 0.214695 0.561306 0.799276
vn 0.090926 0.695081 -0.713158
vn 0.107348 -0.561306 0.820617
vn 0.000000 1.000000 0.000000
vn 0.000000 -1.000000 0.000000
vn 0.319145 0.213294 0.923391
vn 0.106962 0.836984 0.536671
vn 0.091142 0.695023 -0.713188
vn 0.155264 -0.607473 0.779019
vn 0.182283 0.676857 0.713188
vn 0.666667 0.333333 0.666667
vn 0.707107 0.707107 0.000000
vn 0.000000 0.624695 0.780869
vn 0.627820 0.752366 -0.199467
vn -0.832050 0.554700 0.000000
vn -0.436436 0.872872 0.218218
vn -0.218218 0.872872 -0.436436
vn 0.333333 0.666667 -0.666667
vn 0.816497 0.408248 0.408248
vn 0.218218 0.872872 0.436436
vn 0.800000 0.600000 0.000000
vn -0.707107 0.707107 0.000000
vn 0.577350 0.577350 0.577350
vn -0.333333 0.666667 0.666667
vn -0.666667 0.666667 -0.333333
vn 0.480048 -0.734450 0.479726
vn 0.622109 0.475899 0.621692
vn 0.479764 0.734518 0.479906
vn 0.621781 -0.475972 0.621964
vn 0.491516 0.648315 -0.581464
vn 0.648645 0.491080 0.581464
vn 0.491054 0.648605 0.581531
vn 0.621781 0.621964 -0.475972
vt 0.351788 0.842213
vt 0.186480 0.887297
vt 0.186480 0.752045
vt 0.351788 0.752045
vt 0.013071 0.023649
vt 0.148323 0.023649
vt 0.148323 0.143873
vt 0.013071 0.143873
vt 0.962563 0.571174
vt 0.992619 0.571174
vt 0.977590 0.586202
vt 0.962563 0.586202
vt 0.186480 0.992493
vt 0.006144 0.992493
vt 0.006144 0.887297
vt 0.780556 0.412620
vt 0.780556 0.277367
vt 0.990949 0.277367
vt 0.990949 0.412620
vt 0.977590 0.976930
vt 0.977590 0.781566
vt 0.992619 0.781566
vt 0.992619 0.991958
vt 0.396872 0.992493
vt 0.396872 0.887297
vt 0.485162 0.435892
vt 0.500188 0.420862
vt 0.500203 0.541086
vt 0.485175 0.541088
vt 0.303553 0.208955
vt 0.303561 0.178899
vt 0.393729 0.178923
vt 0.393721 0.208979
vt 0.641755 0.812015
vt 0.641755 0.691791
vt 0.852147 0.691791
vt 0.852147 0.812015
vt 0.431362 0.812015
vt 0.431362 0.691791
vt 0.164263 0.137274
vt 0.570164 0.412620
vt 0.576763 0.396680
vt 0.390273 0.871358
vt 0.990949 0.547872
vt 0.462735 0.178941
vt 0.597987 0.178977
vt 0.567923 0.209025
vt 0.462727 0.208997
vt 0.006144 0.752045
vt 0.788361 0.991958
vt 0.698193 0.991958
vt 0.698193 0.961902
vt 0.788361 0.961902
vt 0.541400 0.223721
vt 0.436203 0.313889
vt 0.436203 0.223721
vt 0.955172 0.593956
vt 0.865004 0.789320
vt 0.865004 0.578928
vt 0.955172 0.578928
vt 0.420264 0.307290
vt 0.857367 0.991958
vt 0.857367 0.976930
vt 0.780556 0.547872
vt 0.304825 0.435914
vt 0.304823 0.420886
vt 0.570164 0.547872
vt 0.109461 0.435939
vt 0.109459 0.420911
vt 0.597955 0.299201
vt 0.567899 0.299193
vt 0.515216 0.420860
vt 0.515231 0.541084
vt 0.500205 0.556114
vt 0.485177 0.556116
vt 0.865004 0.969656
vt 0.970200 0.789320
vt 0.970200 0.969656
vt 0.304822 0.405858
vt 0.500186 0.405834
vt 0.094433 0.435941
vt 0.094431 0.420913
vt 0.109457 0.405883
vt 0.358405 0.858153
vt 0.608631 0.383475
vt 0.177467 0.105406
vt 0.407059 0.275422
vt 0.410980 0.208984
vt 0.410987 0.178928
vt 0.445483 0.178937
vt 0.445475 0.208993
vt 0.805619 0.991958
vt 0.805619 0.961902
vt 0.840115 0.991958
vt 0.840115 0.961902
vt 0.857367 0.961902
vt 0.970200 0.593956
vt 0.541400 0.328917
vt 0.436203 0.328917
vt 0.193407 0.098789
vt 0.615248 0.367535
vt 0.391119 0.268804
vt 0.300951 0.268804
vt 0.300951 0.223721
vt 0.283575 0.023649
vt 0.283575 0.098789
vt 0.615248 0.277367
vt 0.351788 0.661877
vt 0.186480 0.616793
vt 0.418827 0.143873
vt 0.418827 0.023649
vt 0.554079 0.023649
vt 0.554079 0.143873
vt 0.418795 0.586202
vt 0.403767 0.571174
vt 0.433823 0.571174
vt 0.433823 0.586202
vt 0.006144 0.616793
vt 0.006144 0.511597
vt 0.186480 0.511597
vt 0.780556 0.142115
vt 0.990949 0.142115
vt 0.403767 0.781566
vt 0.418795 0.781566
vt 0.418795 0.976930
vt 0.403767 0.991958
vt 0.396872 0.511597
vt 0.396872 0.616793
vt 0.041330 0.481385
vt 0.041670 0.361161
vt 0.056656 0.376231
vt 0.056358 0.481427
vt 0.213393 0.178876
vt 0.213385 0.208932
vt 0.432801 0.827206
vt 0.643193 0.827206
vt 0.643193 0.947430
vt 0.432801 0.947430
vt 0.853585 0.947430
vt 0.853585 0.827206
vt 0.402887 0.137274
vt 0.576763 0.158055
vt 0.570164 0.142115
vt 0.390273 0.632733
vt 0.990949 0.006863
vt 0.039183 0.208886
vt 0.009135 0.178822
vt 0.144387 0.178857
vt 0.144379 0.208914
vt 0.608025 0.991958
vt 0.608025 0.961902
vt 0.165699 0.223721
vt 0.165699 0.313889
vt 0.060503 0.223721
vt 0.455010 0.568347
vt 0.665402 0.568347
vt 0.470038 0.658515
vt 0.455010 0.658515
vt 0.181639 0.307290
vt 0.539019 0.976930
vt 0.539019 0.991958
vt 0.780556 0.006863
vt 0.237034 0.361713
vt 0.236992 0.376741
vt 0.570164 0.006863
vt 0.432398 0.362266
vt 0.432355 0.377294
vt 0.039159 0.299054
vt 0.009103 0.299046
vt 0.026302 0.481342
vt 0.026642 0.361118
vt 0.056316 0.496455
vt 0.041288 0.496413
vt 0.665402 0.673543
vt 0.845738 0.568347
vt 0.845738 0.673543
vt 0.041713 0.346133
vt 0.237077 0.346685
vt 0.447426 0.362308
vt 0.447383 0.377336
vt 0.432440 0.347238
vt 0.358405 0.645937
vt 0.608631 0.171260
vt 0.389683 0.105406
vt 0.194843 0.275422
vt 0.161639 0.178862
vt 0.196134 0.178871
vt 0.196126 0.208927
vt 0.161631 0.208918
vt 0.590766 0.991958
vt 0.590766 0.961902
vt 0.556271 0.991958
vt 0.556271 0.961902
vt 0.539019 0.961902
vt 0.470038 0.673543
vt 0.060503 0.328917
vt 0.165699 0.328917
vt 0.373743 0.098789
vt 0.615248 0.187199
vt 0.210783 0.268804
g L_PaperTray
f 24/1/24 21/2/21 13/3/13 
f 13/3/13 7/4/7 24/1/24 
f 1/5/1 17/6/17 19/7/19 
f 1/5/1 19/7/19 2/8/2 
f 9/9/9 4/10/4 34/11/34 
f 9/9/9 34/11/34 14/12/14 
f 29/13/29 28/14/28 30/15/30 
f 29/13/29 30/15/30 21/2/21 
f 22/16/22 12/17/12 5/18/5 
f 22/16/22 5/18/5 17/19/17 
f 35/20/35 33/21/33 11/22/11 
f 35/20/35 11/22/11 2/23/2 
f 16/24/16 29/13/29 21/2/21 
f 16/24/16 21/2/21 18/25/18 
f 11/22/11 33/21/33 34/11/34 
f 34/11/34 4/10/4 11/22/11 
f 38/26/38 43/27/43 36/28/36 
f 38/26/38 36/28/36 37/29/37 
f 7/30/7 8/31/8 26/32/26 
f 7/30/7 26/32/26 24/33/24 
f 11/34/11 10/35/10 1/36/1 
f 11/34/11 1/36/1 2/37/2 
f 10/35/10 11/34/11 4/38/4 
f 10/35/10 4/38/4 3/39/3 
f 17/6/17 51/40/51 19/7/19 
f 20/41/20 47/42/47 22/16/22 
f 21/2/21 46/43/46 18/25/18 
f 22/16/22 17/19/17 1/44/1 
f 20/45/20 3/46/3 16/47/16 
f 20/45/20 16/47/16 18/48/18 
f 30/15/30 31/49/31 13/3/13 
f 30/15/30 13/3/13 21/2/21 
f 25/50/25 6/51/6 15/52/15 
f 25/50/25 15/52/15 27/53/27 
f 28/54/28 23/55/23 30/56/30 
f 14/57/14 29/58/29 16/59/16 
f 9/60/9 14/57/14 16/59/16 
f 30/56/30 23/55/23 50/61/50 
f 19/62/19 32/63/32 35/20/35 
f 19/62/19 35/20/35 2/23/2 
f 10/64/10 22/16/22 1/44/1 
f 38/26/38 39/65/39 40/66/40 
f 40/66/40 43/27/43 38/26/38 
f 22/16/22 10/64/10 3/67/3 
f 39/65/39 41/68/41 42/69/42 
f 42/69/42 40/66/40 39/65/39 
f 4/70/4 9/71/9 16/47/16 
f 4/70/4 16/47/16 3/46/3 
f 35/72/35 32/73/32 36/28/36 
f 35/72/35 36/28/36 43/27/43 
f 32/74/32 23/75/23 37/29/37 
f 32/74/32 37/29/37 36/28/36 
f 28/76/28 29/58/29 39/77/39 
f 28/76/28 39/77/39 38/78/38 
f 33/79/33 35/80/35 43/27/43 
f 33/79/33 43/27/43 40/66/40 
f 14/81/14 34/82/34 42/69/42 
f 14/81/14 42/69/42 41/68/41 
f 34/83/34 33/79/33 40/66/40 
f 34/83/34 40/66/40 42/69/42 
f 45/84/45 46/43/46 21/2/21 
f 22/16/22 47/42/47 44/85/44 
f 48/86/48 51/40/51 17/6/17 
f 50/61/50 49/87/49 30/56/30 
f 45/88/45 44/89/44 47/90/47 
f 45/88/45 47/90/47 46/91/46 
f 45/88/45 24/33/24 26/32/26 
f 45/88/45 26/32/26 44/89/44 
f 47/90/47 20/45/20 18/48/18 
f 47/90/47 18/48/18 46/91/46 
f 48/92/48 25/50/25 27/53/27 
f 48/92/48 27/53/27 49/93/49 
f 51/94/51 48/92/48 49/93/49 
f 51/94/51 49/93/49 50/95/50 
f 32/63/32 19/62/19 51/94/51 
f 50/95/50 23/96/23 32/63/32 
f 50/95/50 32/63/32 51/94/51 
f 14/57/14 41/97/41 39/77/39 
f 39/77/39 29/58/29 14/57/14 
f 23/55/23 28/54/28 38/98/38 
f 23/55/23 38/98/38 37/99/37 
f 3/67/3 20/41/20 22/16/22 
f 25/100/25 48/86/48 17/6/17 
f 22/16/22 44/85/44 26/101/26 
f 24/1/24 45/84/45 21/2/21 
f 30/56/30 49/87/49 27/102/27 
f 27/102/27 15/103/15 31/104/31 
f 27/102/27 31/104/31 30/56/30 
f 25/100/25 17/6/17 5/105/5 
f 5/105/5 6/106/6 25/100/25 
f 12/17/12 22/16/22 26/101/26 
f 12/17/12 26/101/26 8/107/8 
f 68/108/68 7/4/7 13/3/13 
f 13/3/13 65/109/65 68/108/68 
f 63/110/63 61/111/61 52/112/52 
f 53/113/53 63/110/63 52/112/52 
f 77/114/77 55/115/55 56/116/56 
f 59/117/59 77/114/77 56/116/56 
f 74/118/74 72/119/72 73/120/73 
f 65/109/65 74/118/74 73/120/73 
f 5/18/5 12/17/12 66/121/66 
f 61/122/61 5/18/5 66/121/66 
f 58/123/58 76/124/76 78/125/78 
f 53/126/53 58/123/58 78/125/78 
f 65/109/65 73/120/73 60/127/60 
f 62/128/62 65/109/65 60/127/60 
f 58/123/58 55/115/55 77/114/77 
f 77/114/77 76/124/76 58/123/58 
f 79/129/79 86/130/86 81/131/81 
f 80/132/80 79/129/79 81/131/81 
f 70/133/70 8/31/8 7/30/7 
f 68/134/68 70/133/70 7/30/7 
f 52/135/52 57/136/57 58/137/58 
f 53/138/53 52/135/52 58/137/58 
f 55/139/55 58/137/58 57/136/57 
f 54/140/54 55/139/55 57/136/57 
f 63/110/63 94/141/94 61/111/61 
f 66/121/66 90/142/90 64/143/64 
f 62/128/62 89/144/89 65/109/65 
f 52/145/52 61/122/61 66/121/66 
f 60/146/60 54/147/54 64/148/64 
f 62/149/62 60/146/60 64/148/64 
f 13/3/13 31/49/31 74/118/74 
f 65/109/65 13/3/13 74/118/74 
f 15/52/15 6/51/6 69/150/69 
f 71/151/71 15/52/15 69/150/69 
f 74/152/74 67/153/67 72/154/72 
f 60/155/60 73/156/73 59/157/59 
f 60/155/60 59/157/59 56/158/56 
f 93/159/93 67/153/67 74/152/74 
f 78/125/78 75/160/75 63/161/63 
f 53/126/53 78/125/78 63/161/63 
f 52/145/52 66/121/66 57/162/57 
f 81/131/81 86/130/86 83/163/83 
f 83/163/83 82/164/82 81/131/81 
f 54/165/54 57/162/57 66/121/66 
f 82/164/82 83/163/83 85/166/85 
f 85/166/85 84/167/84 82/164/82 
f 60/146/60 56/168/56 55/169/55 
f 54/147/54 60/146/60 55/169/55 
f 79/129/79 75/170/75 78/171/78 
f 86/130/86 79/129/79 78/171/78 
f 80/132/80 67/172/67 75/173/75 
f 79/129/79 80/132/80 75/173/75 
f 82/174/82 73/156/73 72/175/72 
f 81/176/81 82/174/82 72/175/72 
f 86/130/86 78/177/78 76/178/76 
f 83/163/83 86/130/86 76/178/76 
f 85/166/85 77/179/77 59/180/59 
f 84/167/84 85/166/85 59/180/59 
f 83/163/83 76/178/76 77/181/77 
f 85/166/85 83/163/83 77/181/77 
f 65/109/65 89/144/89 88/182/88 
f 87/183/87 90/142/90 66/121/66 
f 61/111/61 94/141/94 91/184/91 
f 74/152/74 92/185/92 93/159/93 
f 90/186/90 87/187/87 88/188/88 
f 89/189/89 90/186/90 88/188/88 
f 70/133/70 68/134/68 88/188/88 
f 87/187/87 70/133/70 88/188/88 
f 62/149/62 64/148/64 90/186/90 
f 89/189/89 62/149/62 90/186/90 
f 71/151/71 69/150/69 91/190/91 
f 92/191/92 71/151/71 91/190/91 
f 92/191/92 91/190/91 94/192/94 
f 93/193/93 92/191/92 94/192/94 
f 94/192/94 63/161/63 75/160/75 
f 75/160/75 67/194/67 93/193/93 
f 94/192/94 75/160/75 93/193/93 
f 82/174/82 84/195/84 59/157/59 
f 59/157/59 73/156/73 82/174/82 
f 81/196/81 72/154/72 67/153/67 
f 80/197/80 81/196/81 67/153/67 
f 66/121/66 64/143/64 54/165/54 
f 61/111/61 91/184/91 69/198/69 
f 70/199/70 87/183/87 66/121/66 
f 65/109/65 88/182/88 68/108/68 
f 71/200/71 92/185/92 74/152/74 
f 31/104/31 15/103/15 71/200/71 
f 74/152/74 31/104/31 71/200/71 
f 5/105/5 61/111/61 69/198/69 
f 69/198/69 6/106/6 5/105/5 
f 70/199/70 66/121/66 12/17/12 
f 8/107/8 70/199/70 12/17/12 
