o box_lowpoly.obj
v 0.185000 -0.000000 -0.147500
v 0.185000 0.250000 -0.147500
v 0.185000 -0.000000 0.147500
v 0.185000 0.250000 0.147500
v 0.180000 0.250000 0.142500
v 0.180000 0.250000 -0.142500
v 0.180000 0.011250 0.142500
v 0.180000 0.011250 -0.142500
v 0.180000 0.165000 0.032500
v 0.185000 0.165000 0.032500
v 0.180000 0.166142 0.038240
v 0.185000 0.166142 0.038240
v 0.180000 0.169393 0.043107
v 0.185000 0.169393 0.043107
v 0.180000 0.174260 0.046358
v 0.185000 0.174260 0.046358
v 0.180000 0.180000 0.047500
v 0.185000 0.180000 0.047500
v 0.180000 0.185740 0.046358
v 0.185000 0.185740 0.046358
v 0.180000 0.190607 0.043107
v 0.185000 0.190607 0.043107
v 0.180000 0.193858 0.038240
v 0.185000 0.193858 0.038240
v 0.180000 0.195000 0.032500
v 0.185000 0.195000 0.032500
v 0.180000 0.193858 -0.038240
v 0.185000 0.193858 -0.038240
v 0.180000 0.190607 -0.043107
v 0.185000 0.190607 -0.043107
v 0.180000 0.185740 -0.046358
v 0.185000 0.185740 -0.046358
v 0.180000 0.180000 -0.047500
v 0.185000 0.180000 -0.047500
v 0.180000 0.174260 -0.046358
v 0.185000 0.174260 -0.046358
v 0.180000 0.169393 -0.043107
v 0.185000 0.169393 -0.043107
v 0.180000 0.166142 -0.038240
v 0.185000 0.166142 -0.038240
v 0.185000 0.195000 -0.032500
v 0.180000 0.195000 -0.032500
v 0.180000 0.165000 -0.032500
v 0.185000 0.165000 -0.032500
v 0.000000 -0.000000 -0.147500
v 0.000000 0.250000 -0.147500
v 0.000000 0.250000 0.147500
v 0.000000 -0.000000 0.147500
v 0.000000 0.250000 0.142500
v 0.000000 0.250000 -0.142500
v 0.000000 0.011250 0.142500
v 0.000000 0.011250 -0.142500
v -0.185000 0.000000 -0.147500
v -0.185000 0.250000 -0.147500
v -0.185000 0.000000 0.147500
v -0.185000 0.250000 0.147500
v -0.180000 0.250000 0.142500
v -0.180000 0.250000 -0.142500
v -0.180000 0.011250 0.142500
v -0.180000 0.011250 -0.142500
v -0.180000 0.165000 0.032500
v -0.185000 0.165000 0.032500
v -0.180000 0.166142 0.038240
v -0.185000 0.166142 0.038240
v -0.180000 0.169393 0.043107
v -0.185000 0.169393 0.043107
v -0.180000 0.174260 0.046358
v -0.185000 0.174260 0.046358
v -0.180000 0.180000 0.047500
v -0.185000 0.180000 0.047500
v -0.180000 0.185740 0.046358
v -0.185000 0.185740 0.046358
v -0.180000 0.190607 0.043107
v -0.185000 0.190607 0.043107
v -0.180000 0.193858 0.038240
v -0.185000 0.193858 0.038240
v -0.180000 0.195000 0.032500
v -0.185000 0.195000 0.032500
v -0.180000 0.193858 -0.038240
v -0.185000 0.193858 -0.038240
v -0.180000 0.190607 -0.043107
v -0.185000 0.190607 -0.043107
v -0.180000 0.185740 -0.046358
v -0.185000 0.185740 -0.046358
v -0.180000 0.180000 -0.047500
v -0.185000 0.180000 -0.047500
v -0.180000 0.174260 -0.046358
v -0.185000 0.174260 -0.046358
v -0.180000 0.169393 -0.043107
v -0.185000 0.169393 -0.043107
v -0.180000 0.166142 -0.038240
v -0.185000 0.166142 -0.038240
v -0.185000 0.195000 -0.032500
v -0.180000 0.195000 -0.032500
v -0.180000 0.165000 -0.032500
v -0.185000 0.165000 -0.032500
v 0.185000 -0.000000 0.000000
v 0.180000 0.011250 0.000000
v 0.180000 0.165000 -0.000000
v 0.185000 0.165000 -0.000000
v 0.000000 -0.000000 0.000000
v 0.000000 0.011250 0.000000
v -0.185000 0.000000 0.000000
v -0.180000 0.011250 0.000000
v -0.180000 0.165000 -0.000000
v -0.185000 0.165000 -0.000000
v -0.185000 0.250000 0.000000
v -0.180000 0.250000 0.000000
v -0.185000 0.195000 -0.000000
v -0.180000 0.195000 -0.000000
v 0.185000 0.250000 0.000000
v 0.180000 0.250000 0.000000
v 0.185000 0.195000 -0.000000
v 0.180000 0.195000 -0.000000
vn 0.937043 -0.312348 -0.156174
vn 0.857143 0.428571 -0.285714
vn 0.870388 -0.348155 0.348155
vn 0.911322 0.390567 0.130189
vn -0.884652 0.442326 -0.147442
vn -0.857143 0.428571 0.285714
vn -0.937043 0.156174 -0.312348
vn -0.973329 0.162221 0.162221
vn -0.708622 0.699541 -0.092182
vn 0.708622 0.704081 -0.046091
vn -0.561306 0.742013 -0.366541
vn 0.561306 0.783894 -0.265416
vn -0.561322 0.545170 -0.622661
vn 0.561322 0.622661 -0.545170
vn -0.561306 0.265416 -0.783894
vn 0.713159 0.310468 -0.628502
vn -0.713167 -0.046387 -0.699458
vn 0.561315 0.054765 -0.825788
vn -0.561306 -0.366541 -0.742013
vn 0.561306 -0.265416 -0.783894
vn -0.561322 -0.622661 -0.545170
vn 0.561322 -0.545170 -0.622661
vn -0.561306 -0.783894 -0.265416
vn 0.561306 -0.742013 -0.366541
vn -0.708622 -0.704081 -0.046091
vn 0.708622 -0.699541 -0.092182
vn -0.561306 -0.742013 0.366541
vn 0.561306 -0.783894 0.265416
vn -0.561322 -0.545170 0.622661
vn 0.561322 -0.622661 0.545170
vn -0.561306 -0.265417 0.783894
vn 0.561306 -0.366541 0.742013
vn -0.713167 0.046387 0.699458
vn 0.713167 -0.046387 0.699458
vn -0.561306 0.366541 0.742013
vn 0.561306 0.265416 0.783894
vn -0.561322 0.622661 0.545170
vn 0.561322 0.545170 0.622661
vn -0.561306 0.783894 0.265416
vn 0.561306 0.742013 0.366541
vn 0.833283 -0.550183 0.054199
vn -0.601854 -0.794759 0.078293
vn -0.833283 0.550183 0.054199
vn 0.601854 0.794759 0.078293
vn 0.000000 -0.554700 -0.832050
vn 0.000000 0.707107 -0.707107
vn 0.000000 0.707107 0.707107
vn 0.000000 -0.554700 0.832050
vn 0.000000 0.707107 -0.707107
vn 0.000000 0.707107 0.707107
vn 0.000000 0.800000 -0.600000
vn 0.000000 0.800000 0.600000
vn -0.870388 -0.348155 -0.348155
vn -0.911322 0.390567 -0.130189
vn -0.937043 -0.312348 0.156174
vn -0.857143 0.428571 0.285714
vn 0.857143 0.428571 -0.285714
vn 0.884652 0.442326 0.147442
vn 0.973329 0.162221 -0.162221
vn 0.937043 0.156174 0.312348
vn 0.833283 0.550183 -0.054199
vn -0.601854 0.794759 -0.078293
vn 0.561306 0.783894 -0.265416
vn -0.561306 0.742013 -0.366541
vn 0.561322 0.622661 -0.545170
vn -0.561322 0.545170 -0.622661
vn 0.561306 0.366541 -0.742013
vn -0.561306 0.265416 -0.783894
vn 0.713167 0.046387 -0.699458
vn -0.713167 -0.046387 -0.699458
vn 0.561306 -0.265416 -0.783894
vn -0.561306 -0.366541 -0.742013
vn 0.561322 -0.545170 -0.622661
vn -0.561322 -0.622661 -0.545170
vn 0.561306 -0.742013 -0.366541
vn -0.561306 -0.783894 -0.265416
vn 0.601854 -0.794759 -0.078293
vn -0.833283 -0.550183 -0.054199
vn 0.561306 -0.783894 0.265416
vn -0.561306 -0.742013 0.366541
vn 0.561322 -0.622661 0.545170
vn -0.561322 -0.545170 0.622661
vn 0.561306 -0.366541 0.742013
vn -0.561306 -0.265417 0.783894
vn 0.713167 -0.046387 0.699458
vn -0.561315 0.054765 0.825788
vn 0.561306 0.265416 0.783894
vn -0.713159 0.310468 0.628502
vn 0.561322 0.545170 0.622661
vn -0.561322 0.622661 0.545170
vn 0.561306 0.742013 0.366541
vn -0.561306 0.783894 0.265416
vn -0.708622 -0.699541 0.092182
vn 0.708622 -0.704081 0.046091
vn 0.708622 0.699541 0.092182
vn -0.708622 0.704081 0.046091
vn 0.894427 -0.447214 0.000000
vn -0.707107 0.707107 0.000000
vn -0.447214 0.894427 0.000000
vn 0.707107 0.707107 0.000000
vn 0.000000 -1.000000 0.000000
vn 0.000000 1.000000 0.000000
vn -0.894427 -0.447214 0.000000
vn 0.707107 0.707107 0.000000
vn 0.447214 0.894427 0.000000
vn -0.707107 0.707107 0.000000
vn -0.800000 0.600000 0.000000
vn 0.800000 0.600000 0.000000
vn -0.447214 -0.894427 0.000000
vn 0.707107 -0.707107 0.000000
vn 0.800000 0.600000 0.000000
vn -0.800000 0.600000 0.000000
vn 0.447214 -0.894427 0.000000
vn -0.707107 -0.707107 0.000000
vt 0.732890 0.371084
vt 0.488129 0.371287
vt 0.487980 0.190164
vt 0.732740 0.189961
vt 0.995203 0.371084
vt 0.750442 0.371287
vt 0.750292 0.190164
vt 0.995053 0.189961
vt 0.286445 0.649420
vt 0.286445 0.822547
vt 0.148411 0.822547
vt 0.148411 0.649420
vt 0.719669 0.830993
vt 0.714444 0.830993
vt 0.714444 0.682098
vt 0.737635 0.189957
vt 0.737781 0.366185
vt 0.245692 0.358072
vt 0.245692 0.181844
vt 0.479438 0.181844
vt 0.479438 0.358072
vt 0.331709 0.782678
vt 0.331709 0.788408
vt 0.326813 0.788408
vt 0.326813 0.782678
vt 0.331709 0.776948
vt 0.326813 0.776948
vt 0.331709 0.771218
vt 0.326813 0.771218
vt 0.331709 0.765488
vt 0.326813 0.765488
vt 0.331709 0.759758
vt 0.326813 0.759758
vt 0.331709 0.754028
vt 0.326813 0.754028
vt 0.331709 0.748297
vt 0.326813 0.748297
vt 0.331709 0.742567
vt 0.326813 0.742567
vt 0.331709 0.892156
vt 0.331709 0.897886
vt 0.326813 0.897886
vt 0.326813 0.892156
vt 0.331709 0.886426
vt 0.326813 0.886426
vt 0.331709 0.880696
vt 0.326813 0.880696
vt 0.331709 0.874966
vt 0.326813 0.874966
vt 0.331709 0.869236
vt 0.326813 0.869236
vt 0.331709 0.863506
vt 0.326813 0.863506
vt 0.331709 0.857776
vt 0.326813 0.857776
vt 0.331709 0.852046
vt 0.326813 0.852046
vt 0.331709 0.929705
vt 0.326813 0.929705
vt 0.331709 0.820227
vt 0.835882 0.561630
vt 0.987527 0.663705
vt 0.832698 0.566394
vt 0.827934 0.569578
vt 0.816694 0.569578
vt 0.753781 0.663705
vt 0.811930 0.566394
vt 0.808746 0.561630
vt 0.807628 0.556010
vt 0.808746 0.486752
vt 0.753781 0.384678
vt 0.811930 0.481988
vt 0.816694 0.478805
vt 0.822314 0.477687
vt 0.832698 0.481988
vt 0.827934 0.478805
vt 0.835882 0.486752
vt 0.837000 0.492372
vt 0.822314 0.570696
vt 0.987527 0.384678
vt 0.808483 0.797034
vt 0.807290 0.791036
vt 0.980887 0.676874
vt 0.803893 0.785951
vt 0.798808 0.782554
vt 0.792810 0.781361
vt 0.719669 0.676874
vt 0.786812 0.782554
vt 0.781728 0.785951
vt 0.778330 0.791036
vt 0.777137 0.864951
vt 0.778330 0.870949
vt 0.781728 0.876034
vt 0.786812 0.879431
vt 0.792810 0.880624
vt 0.798808 0.879431
vt 0.980887 0.985111
vt 0.803893 0.876034
vt 0.807290 0.870949
vt 0.359149 0.363695
vt 0.182921 0.503209
vt 0.745543 0.366395
vt 0.003430 0.181999
vt 0.003430 0.005771
vt 0.237176 0.005771
vt 0.487829 0.009041
vt 0.732590 0.008839
vt 0.994902 0.008838
vt 0.010378 0.995674
vt 0.010378 0.822547
vt 0.148411 0.995674
vt 0.686294 0.684136
vt 0.681105 0.833032
vt 0.737489 0.013730
vt 0.479438 0.005617
vt 0.245692 0.005617
vt 0.378824 0.782262
vt 0.378824 0.787992
vt 0.373929 0.787992
vt 0.373929 0.782262
vt 0.378824 0.776532
vt 0.373929 0.776532
vt 0.378824 0.770802
vt 0.373929 0.770802
vt 0.378824 0.765072
vt 0.373929 0.765072
vt 0.378824 0.759342
vt 0.373929 0.759342
vt 0.378824 0.753612
vt 0.373929 0.753612
vt 0.378824 0.747882
vt 0.373929 0.747882
vt 0.378824 0.742152
vt 0.373929 0.742152
vt 0.378824 0.891741
vt 0.378824 0.897471
vt 0.373929 0.897471
vt 0.373929 0.891741
vt 0.378824 0.886010
vt 0.373929 0.886010
vt 0.378824 0.880280
vt 0.373929 0.880280
vt 0.378824 0.874550
vt 0.373929 0.874550
vt 0.378824 0.868820
vt 0.373929 0.868820
vt 0.378824 0.863090
vt 0.373929 0.863090
vt 0.378824 0.857360
vt 0.373929 0.857360
vt 0.378824 0.851630
vt 0.373929 0.851630
vt 0.373929 0.710333
vt 0.378824 0.710333
vt 0.373929 0.819811
vt 0.725992 0.384898
vt 0.574347 0.486972
vt 0.571164 0.482208
vt 0.566399 0.479025
vt 0.492246 0.384898
vt 0.555159 0.479025
vt 0.550395 0.482208
vt 0.547211 0.486972
vt 0.546094 0.492592
vt 0.492246 0.663925
vt 0.547211 0.561850
vt 0.550395 0.566614
vt 0.555159 0.569798
vt 0.560779 0.570916
vt 0.566399 0.569798
vt 0.571164 0.566614
vt 0.574347 0.561850
vt 0.575465 0.556230
vt 0.560779 0.477907
vt 0.725992 0.663925
vt 0.593475 0.793096
vt 0.592283 0.799094
vt 0.596871 0.788011
vt 0.601955 0.784612
vt 0.419851 0.678974
vt 0.681069 0.678913
vt 0.607952 0.783418
vt 0.613950 0.784609
vt 0.619036 0.788006
vt 0.622435 0.793090
vt 0.622453 0.873002
vt 0.623645 0.867004
vt 0.619057 0.878087
vt 0.613973 0.881486
vt 0.607975 0.882681
vt 0.419923 0.987212
vt 0.601977 0.881489
vt 0.596892 0.878092
vt 0.593493 0.873009
vt 0.006693 0.642722
vt 0.745397 0.190168
vt 0.745251 0.013940
vt 0.750142 0.009041
vt 0.237176 0.181999
vt 0.237176 0.358226
vt 0.003430 0.358226
vt 0.010378 0.649420
vt 0.326813 0.820227
vt 0.359149 0.503209
vt 0.359149 0.642722
vt 0.182921 0.642722
vt 0.286445 0.995674
vt 0.378824 0.819811
vt 0.006693 0.503209
vt 0.006693 0.363695
vt 0.182921 0.363695
vt 0.686329 0.833031
vt 0.686364 0.981925
vt 0.681141 0.987151
vt 0.373929 0.929289
vt 0.378824 0.929289
vt 0.719669 0.985111
vt 0.714444 0.979887
vt 0.331709 0.710748
vt 0.326813 0.710748
vt 0.807628 0.492372
vt 0.807628 0.524191
vt 0.837000 0.556010
vt 0.837000 0.524191
vt 0.987527 0.524191
vt 0.753781 0.524191
vt 0.777137 0.797034
vt 0.777137 0.830993
vt 0.808483 0.864951
vt 0.808483 0.830993
vt 0.980887 0.830993
vt 0.623637 0.833045
vt 0.623629 0.799087
vt 0.592291 0.833053
vt 0.592299 0.867011
vt 0.419887 0.833093
vt 0.546094 0.524411
vt 0.546094 0.556230
vt 0.575465 0.524411
vt 0.575465 0.492592
vt 0.725992 0.524411
vt 0.492246 0.524411
g L_box
f 2/1/2 1/2/1 45/3/45 
f 2/1/2 45/3/45 46/4/46 
f 3/5/3 4/6/4 47/7/47 
f 3/5/3 47/7/47 48/8/48 
f 3/9/3 48/10/48 101/11/101 
f 3/9/3 101/11/101 97/12/97 
f 4/87/4 111/13/111 112/14/112 
f 4/87/4 112/14/112 5/15/5 
f 2/1/2 46/4/46 50/16/50 
f 2/1/2 50/16/50 6/17/6 
f 6/18/6 50/19/50 52/20/52 
f 6/18/6 52/20/52 8/21/8 
f 12/22/12 10/23/10 9/24/9 
f 12/22/12 9/24/9 11/25/11 
f 14/26/14 12/22/12 11/25/11 
f 14/26/14 11/25/11 13/27/13 
f 16/28/16 14/26/14 13/27/13 
f 16/28/16 13/27/13 15/29/15 
f 18/30/18 16/28/16 15/29/15 
f 18/30/18 15/29/15 17/31/17 
f 20/32/20 18/30/18 17/31/17 
f 20/32/20 17/31/17 19/33/19 
f 22/34/22 20/32/20 19/33/19 
f 22/34/22 19/33/19 21/35/21 
f 24/36/24 22/34/22 21/35/21 
f 24/36/24 21/35/21 23/37/23 
f 26/38/26 24/36/24 23/37/23 
f 26/38/26 23/37/23 25/39/25 
f 28/40/28 41/41/41 42/42/42 
f 28/40/28 42/42/42 27/43/27 
f 30/44/30 28/40/28 27/43/27 
f 30/44/30 27/43/27 29/45/29 
f 32/46/32 30/44/30 29/45/29 
f 32/46/32 29/45/29 31/47/31 
f 34/48/34 32/46/32 31/47/31 
f 34/48/34 31/47/31 33/49/33 
f 36/50/36 34/48/34 33/49/33 
f 36/50/36 33/49/33 35/51/35 
f 38/52/38 36/50/36 35/51/35 
f 38/52/38 35/51/35 37/53/37 
f 40/54/40 38/52/38 37/53/37 
f 40/54/40 37/53/37 39/55/39 
f 44/56/44 40/54/40 39/55/39 
f 44/56/44 39/55/39 43/57/43 
f 42/42/42 41/41/41 113/58/113 
f 42/42/42 113/58/113 114/59/114 
f 44/56/44 43/57/43 99/203/99 
f 44/56/44 99/203/99 100/60/100 
f 11/61/11 9/223/9 7/62/7 
f 13/63/13 11/61/11 7/62/7 
f 15/64/15 13/63/13 7/62/7 
f 19/65/19 17/79/17 5/66/5 
f 21/67/21 19/65/19 5/66/5 
f 23/68/23 21/67/21 5/66/5 
f 25/69/25 23/68/23 5/66/5 
f 27/70/27 42/221/42 6/71/6 
f 29/72/29 27/70/27 6/71/6 
f 31/73/31 29/72/29 6/71/6 
f 33/74/33 31/73/31 6/71/6 
f 37/75/37 35/76/35 8/80/8 
f 39/77/39 37/75/37 8/80/8 
f 43/78/43 39/77/39 8/80/8 
f 17/79/17 15/64/15 7/62/7 
f 17/79/17 7/62/7 5/66/5 
f 33/74/33 6/71/6 8/80/8 
f 8/80/8 35/76/35 33/74/33 
f 10/81/10 12/82/12 3/83/3 
f 12/82/12 14/84/14 3/83/3 
f 14/84/14 16/85/16 3/83/3 
f 16/85/16 18/86/18 4/87/4 
f 16/85/16 4/87/4 3/83/3 
f 18/86/18 20/88/20 4/87/4 
f 20/88/20 22/89/22 4/87/4 
f 22/89/22 24/90/24 4/87/4 
f 24/90/24 26/227/26 4/87/4 
f 41/91/41 28/92/28 2/217/2 
f 28/92/28 30/93/30 2/217/2 
f 30/93/30 32/94/32 2/217/2 
f 32/94/32 34/95/34 2/217/2 
f 34/95/34 36/96/36 1/97/1 
f 34/95/34 1/97/1 2/217/2 
f 36/96/36 38/98/38 1/97/1 
f 38/98/38 40/99/40 1/97/1 
f 40/99/40 44/229/44 1/97/1 
f 51/211/51 7/100/7 98/204/98 
f 51/211/51 98/204/98 102/101/102 
f 47/7/47 4/6/4 5/102/5 
f 47/7/47 5/102/5 49/196/49 
f 49/103/49 5/104/5 7/105/7 
f 49/103/49 7/105/7 51/199/51 
f 46/4/46 45/3/45 53/106/53 
f 46/4/46 53/106/53 54/107/54 
f 48/8/48 47/7/47 56/198/56 
f 48/8/48 56/198/56 55/108/55 
f 53/109/53 45/110/45 101/11/101 
f 53/109/53 101/11/101 103/111/103 
f 57/112/57 108/212/108 107/113/107 
f 57/112/57 107/113/107 56/181/56 
f 58/114/58 50/16/50 46/4/46 
f 58/114/58 46/4/46 54/107/54 
f 60/115/60 52/20/52 50/19/50 
f 60/115/60 50/19/50 58/116/58 
f 63/117/63 61/118/61 62/119/62 
f 63/117/63 62/119/62 64/120/64 
f 65/121/65 63/117/63 64/120/64 
f 65/121/65 64/120/64 66/122/66 
f 67/123/67 65/121/65 66/122/66 
f 67/123/67 66/122/66 68/124/68 
f 69/125/69 67/123/67 68/124/68 
f 69/125/69 68/124/68 70/126/70 
f 71/127/71 69/125/69 70/126/70 
f 71/127/71 70/126/70 72/128/72 
f 73/129/73 71/127/71 72/128/72 
f 73/129/73 72/128/72 74/130/74 
f 75/131/75 73/129/73 74/130/74 
f 75/131/75 74/130/74 76/132/76 
f 77/133/77 75/131/75 76/132/76 
f 77/133/77 76/132/76 78/134/78 
f 79/135/79 94/136/94 93/137/93 
f 79/135/79 93/137/93 80/138/80 
f 81/139/81 79/135/79 80/138/80 
f 81/139/81 80/138/80 82/140/82 
f 83/141/83 81/139/81 82/140/82 
f 83/141/83 82/140/82 84/142/84 
f 85/143/85 83/141/83 84/142/84 
f 85/143/85 84/142/84 86/144/86 
f 87/145/87 85/143/85 86/144/86 
f 87/145/87 86/144/86 88/146/88 
f 89/147/89 87/145/87 88/146/88 
f 89/147/89 88/146/88 90/148/90 
f 91/149/91 89/147/89 90/148/90 
f 91/149/91 90/148/90 92/150/92 
f 95/151/95 91/149/91 92/150/92 
f 95/151/95 92/150/92 96/152/96 
f 77/133/77 78/134/78 109/153/109 
f 77/133/77 109/153/109 110/154/110 
f 62/119/62 61/118/61 105/208/105 
f 62/119/62 105/208/105 106/155/106 
f 59/156/59 61/240/61 63/157/63 
f 59/156/59 63/157/63 65/158/65 
f 59/156/59 65/158/65 67/159/67 
f 57/160/57 69/174/69 71/161/71 
f 57/160/57 71/161/71 73/162/73 
f 57/160/57 73/162/73 75/163/75 
f 57/160/57 75/163/75 77/164/77 
f 58/165/58 94/238/94 79/166/79 
f 58/165/58 79/166/79 81/167/81 
f 58/165/58 81/167/81 83/168/83 
f 58/165/58 83/168/83 85/169/85 
f 60/175/60 87/170/87 89/171/89 
f 60/175/60 89/171/89 91/172/91 
f 60/175/60 91/172/91 95/173/95 
f 59/156/59 67/159/67 69/174/69 
f 57/160/57 59/156/59 69/174/69 
f 60/175/60 58/165/58 85/169/85 
f 85/169/85 87/170/87 60/175/60 
f 55/180/55 64/176/64 62/177/62 
f 55/180/55 66/178/66 64/176/64 
f 55/180/55 68/179/68 66/178/66 
f 55/180/55 56/181/56 70/182/70 
f 55/180/55 70/182/70 68/179/68 
f 56/181/56 72/183/72 70/182/70 
f 56/181/56 74/184/74 72/183/72 
f 56/181/56 76/185/76 74/184/74 
f 56/181/56 78/233/78 76/185/76 
f 54/214/54 80/186/80 93/187/93 
f 54/214/54 82/188/82 80/186/80 
f 54/214/54 84/189/84 82/188/82 
f 54/214/54 86/190/86 84/189/84 
f 54/214/54 53/191/53 88/192/88 
f 54/214/54 88/192/88 86/190/86 
f 53/191/53 90/193/90 88/192/88 
f 53/191/53 92/194/92 90/193/90 
f 53/191/53 96/235/96 92/194/92 
f 52/206/52 60/195/60 104/209/104 
f 52/206/52 104/209/104 102/101/102 
f 49/196/49 57/197/57 56/198/56 
f 49/196/49 56/198/56 47/7/47 
f 51/199/51 59/200/59 57/201/57 
f 51/199/51 57/201/57 49/103/49 
f 101/11/101 45/110/45 1/202/1 
f 101/11/101 1/202/1 97/12/97 
f 99/203/99 9/24/9 10/23/10 
f 99/203/99 10/23/10 100/60/100 
f 98/204/98 8/205/8 52/206/52 
f 98/204/98 52/206/52 102/101/102 
f 101/11/101 48/10/48 55/207/55 
f 101/11/101 55/207/55 103/111/103 
f 105/208/105 95/151/95 96/152/96 
f 105/208/105 96/152/96 106/155/106 
f 104/209/104 59/210/59 51/211/51 
f 104/209/104 51/211/51 102/101/102 
f 108/212/108 58/213/58 54/214/54 
f 108/212/108 54/214/54 107/113/107 
f 109/215/109 93/137/93 94/136/94 
f 109/215/109 94/136/94 110/216/110 
f 111/13/111 2/217/2 6/218/6 
f 111/13/111 6/218/6 112/14/112 
f 113/219/113 26/38/26 25/39/25 
f 113/219/113 25/39/25 114/220/114 
f 42/221/42 114/222/114 112/226/112 
f 42/221/42 112/226/112 6/71/6 
f 9/223/9 99/224/99 98/225/98 
f 9/223/9 98/225/98 7/62/7 
f 43/78/43 8/80/8 98/225/98 
f 98/225/98 99/224/99 43/78/43 
f 25/69/25 5/66/5 112/226/112 
f 112/226/112 114/222/114 25/69/25 
f 26/227/26 113/228/113 111/13/111 
f 26/227/26 111/13/111 4/87/4 
f 44/229/44 100/230/100 97/231/97 
f 44/229/44 97/231/97 1/97/1 
f 10/81/10 3/83/3 97/231/97 
f 97/231/97 100/230/100 10/81/10 
f 41/91/41 2/217/2 111/13/111 
f 111/13/111 113/228/113 41/91/41 
f 107/113/107 109/232/109 78/233/78 
f 78/233/78 56/181/56 107/113/107 
f 103/236/103 106/234/106 96/235/96 
f 96/235/96 53/191/53 103/236/103 
f 103/236/103 55/180/55 62/177/62 
f 103/236/103 62/177/62 106/234/106 
f 107/113/107 54/214/54 93/187/93 
f 107/113/107 93/187/93 109/232/109 
f 108/242/108 110/237/110 94/238/94 
f 94/238/94 58/165/58 108/242/108 
f 104/241/104 105/239/105 61/240/61 
f 61/240/61 59/156/59 104/241/104 
f 104/241/104 60/175/60 95/173/95 
f 104/241/104 95/173/95 105/239/105 
f 108/242/108 57/160/57 77/164/77 
f 108/242/108 77/164/77 110/237/110 
